<?xml version="1.0" encoding="UTF-8"?>
<svg viewBox="0 0 1200 760" xmlns="http://www.w3.org/2000/svg" role="img" aria-label="Detail shots">
  <defs>
    <linearGradient id="bg5" x1="0" y1="0" x2="1" y2="1">
      <stop offset="0" stop-color="rgba(46,123,255,.35)"/>
      <stop offset="1" stop-color="rgba(0,209,255,.18)"/>
    </linearGradient>
    <linearGradient id="fg5" x1="0" y1="1" x2="1" y2="0">
      <stop offset="0" stop-color="#0B1020"/>
      <stop offset="1" stop-color="#0E1B3B"/>
    </linearGradient>
  </defs>
  <rect x="0" y="0" width="1200" height="760" fill="url(#bg5)"/>
  <g opacity=".9">
    <rect x="70" y="80" width="1060" height="520" rx="28" fill="rgba(0,0,0,.25)" stroke="rgba(255,255,255,.16)"/>
    <path d="M170 430 C260 350, 380 312, 560 316 C710 320, 840 356, 1010 440
             C970 520, 890 560, 760 572 L310 572
             C230 562, 185 520, 170 430 Z"
          fill="url(#fg5)" stroke="rgba(255,255,255,.18)" stroke-width="3"/>
    <circle cx="355" cy="570" r="60" fill="#070A14" stroke="rgba(255,255,255,.20)" stroke-width="3"/>
    <circle cx="835" cy="570" r="60" fill="#070A14" stroke="rgba(255,255,255,.20)" stroke-width="3"/>
    <circle cx="355" cy="570" r="28" fill="rgba(255,255,255,.08)" stroke="rgba(255,255,255,.20)" stroke-width="3"/>
    <circle cx="835" cy="570" r="28" fill="rgba(255,255,255,.08)" stroke="rgba(255,255,255,.20)" stroke-width="3"/>
  </g>
  <text x="70" y="710" fill="rgba(255,255,255,.65)" font-size="34" font-family="ui-sans-serif, system-ui" font-weight="800">Detail shots</text>
  <text x="70" y="742" fill="rgba(255,255,255,.38)" font-size="20" font-family="ui-sans-serif, system-ui">Placeholder image — replace with your own photo</text>
</svg>
