<?xml version="1.0" encoding="UTF-8"?>
<svg viewBox="0 0 980 420" xmlns="http://www.w3.org/2000/svg" role="img" aria-label="Illustration stylisée d’une hypercar bleue">
  <defs>
    <linearGradient id="g1" x1="0" y1="0" x2="1" y2="1">
      <stop offset="0" stop-color="#2E7BFF" stop-opacity="1"/>
      <stop offset="1" stop-color="#00D1FF" stop-opacity="0.85"/>
    </linearGradient>
    <linearGradient id="g2" x1="0" y1="1" x2="1" y2="0">
      <stop offset="0" stop-color="#0B1228" stop-opacity="1"/>
      <stop offset="1" stop-color="#0E1B3B" stop-opacity="1"/>
    </linearGradient>
    <filter id="soft" x="-20%" y="-20%" width="140%" height="140%">
      <feGaussianBlur stdDeviation="10" result="b"/>
      <feColorMatrix in="b" type="matrix"
        values="1 0 0 0 0
                0 1 0 0 0
                0 0 1 0 0
                0 0 0 .35 0" result="s"/>
      <feMerge>
        <feMergeNode in="s"/>
        <feMergeNode in="SourceGraphic"/>
      </feMerge>
    </filter>
  </defs>

  <!-- glow -->
  <path d="M112 260 C210 210, 340 170, 520 175 C645 178, 750 202, 868 262
           C846 292, 792 312, 725 316
           L230 316 C170 312, 132 296, 112 260 Z"
        fill="url(#g1)" opacity=".20" filter="url(#soft)"/>

  <!-- body -->
  <path d="M130 265
           C185 215, 300 180, 490 182
           C610 184, 720 208, 845 266
           C827 296, 785 315, 725 322
           L250 322
           C190 316, 152 296, 130 265 Z"
        fill="url(#g2)" stroke="rgba(255,255,255,.14)" stroke-width="2"/>

  <!-- roofline -->
  <path d="M290 250
           C330 206, 400 192, 470 194
           C545 196, 605 214, 645 252
           C588 246, 520 244, 450 246
           C392 248, 338 250, 290 250 Z"
        fill="rgba(46,123,255,.35)" stroke="rgba(255,255,255,.16)" stroke-width="2"/>

  <!-- window -->
  <path d="M340 247
           C368 220, 418 210, 470 212
           C520 214, 560 228, 592 250
           C540 246, 485 244, 430 245
           C395 246, 365 247, 340 247 Z"
        fill="rgba(0,209,255,.22)" stroke="rgba(255,255,255,.18)" stroke-width="2"/>

  <!-- front intake -->
  <path d="M800 284 C782 276, 766 272, 744 271
           C774 288, 784 300, 792 312
           C812 306, 828 296, 838 284
           C826 286, 814 286, 800 284 Z"
        fill="rgba(0,209,255,.18)" stroke="rgba(255,255,255,.12)" stroke-width="2"/>

  <!-- wheels -->
  <g>
    <circle cx="280" cy="322" r="54" fill="#060915" stroke="rgba(255,255,255,.18)" stroke-width="2"/>
    <circle cx="280" cy="322" r="28" fill="rgba(46,123,255,.25)" stroke="rgba(255,255,255,.18)" stroke-width="2"/>
    <circle cx="710" cy="322" r="54" fill="#060915" stroke="rgba(255,255,255,.18)" stroke-width="2"/>
    <circle cx="710" cy="322" r="28" fill="rgba(0,209,255,.20)" stroke="rgba(255,255,255,.18)" stroke-width="2"/>
  </g>

  <!-- ground line -->
  <path d="M90 350 L890 350" stroke="rgba(255,255,255,.10)" stroke-width="2" stroke-linecap="round"/>
</svg>
